<svg width="34" height="34" viewBox="0 0 34 34" fill="none" xmlns="http://www.w3.org/2000/svg">
<path d="M17.7392 22.9911C18.0927 23.4154 18.7233 23.4727 19.1476 23.1191C19.5718 22.7655 19.6292 22.135 19.2756 21.7107L17.7392 22.9911ZM13.8117 16.7161L13.0435 16.0759C12.7345 16.4468 12.7345 16.9854 13.0435 17.3563L13.8117 16.7161ZM19.2756 11.7215C19.6292 11.2972 19.5718 10.6666 19.1476 10.3131C18.7233 9.95951 18.0927 10.0168 17.7392 10.4411L19.2756 11.7215ZM18.5074 22.3509L19.2756 21.7107L14.5799 16.0759L13.8117 16.7161L13.0435 17.3563L17.7392 22.9911L18.5074 22.3509ZM13.8117 16.7161L14.5799 17.3563L19.2756 11.7215L18.5074 11.0813L17.7392 10.4411L13.0435 16.0759L13.8117 16.7161ZM17 4.25V5.25C23.4893 5.25 28.75 10.5107 28.75 17H29.75H30.75C30.75 9.40608 24.5939 3.25 17 3.25V4.25ZM29.75 17H28.75C28.75 23.4893 23.4893 28.75 17 28.75V29.75V30.75C24.5939 30.75 30.75 24.5939 30.75 17H29.75ZM17 29.75V28.75C10.5107 28.75 5.25 23.4893 5.25 17H4.25H3.25C3.25 24.5939 9.40608 30.75 17 30.75V29.75ZM4.25 17H5.25C5.25 10.5107 10.5107 5.25 17 5.25V4.25V3.25C9.40608 3.25 3.25 9.40608 3.25 17H4.25Z" fill="white"/>
</svg>
