<svg width="21" height="25" viewBox="0 0 21 25" fill="none" xmlns="http://www.w3.org/2000/svg">
<path d="M21 20.2381V21.4286H0V20.2381L2.33333 17.8571V10.7143C2.33333 7.02381 4.70167 3.77381 8.16667 2.72619V2.38095C8.16667 1.74948 8.4125 1.14388 8.85008 0.697365C9.28767 0.25085 9.88116 0 10.5 0C11.1188 0 11.7123 0.25085 12.1499 0.697365C12.5875 1.14388 12.8333 1.74948 12.8333 2.38095V2.72619C16.2983 3.77381 18.6667 7.02381 18.6667 10.7143V17.8571L21 20.2381ZM12.8333 22.619C12.8333 23.2505 12.5875 23.8561 12.1499 24.3026C11.7123 24.7491 11.1188 25 10.5 25C9.88116 25 9.28767 24.7491 8.85008 24.3026C8.4125 23.8561 8.16667 23.2505 8.16667 22.619" fill="white"/>
</svg>
