<svg width="32" height="31" viewBox="0 0 32 31" fill="none" xmlns="http://www.w3.org/2000/svg">
<path d="M15.6342 26.1287V6.9973M15.6342 26.1287L13.6909 24.2462C12.5936 23.1831 11.1059 22.5859 9.55402 22.5859H4.66153C3.85362 22.5859 3.19995 21.9514 3.19995 21.1687V6.28873C3.19995 5.50606 3.85489 4.87158 4.66281 4.87158H10.2848C11.8367 4.87158 13.325 5.4688 14.4224 6.53187L15.6342 7.70587L16.8461 6.53187C17.9435 5.46881 19.4318 4.87158 20.9837 4.87158H27.3371C28.145 4.87158 28.7999 5.50606 28.7999 6.28872V21.1687C28.7999 21.9514 28.145 22.5859 27.3371 22.5859H21.7151C20.1632 22.5859 18.6749 23.1831 17.5775 24.2462L15.6342 26.1287Z" stroke="white" stroke-width="2" stroke-linecap="round" stroke-linejoin="round"/>
</svg>
