<svg width="250" height="243" viewBox="0 0 250 243" fill="none" xmlns="http://www.w3.org/2000/svg">
<path d="M118.571 54.5083C105.282 61.1524 103.553 75.5952 102.394 84.2609C101.235 92.9266 96.3278 104.771 88.818 111.129C81.3081 117.488 74.9519 124.414 72.0634 139.724C69.1748 155.034 73.2192 165.722 68.8858 179.587C64.5524 193.452 50.9765 212.517 51.8434 228.116C52.7103 243.715 65.9973 241.982 65.9973 241.982H242.204C247.322 227.357 247.726 211.497 243.36 196.631C237.005 174.966 217.94 171.788 212.741 143.479C210.055 128.862 210.43 124.708 199.742 111.127C188.736 97.1463 181.254 96.9733 176.344 84.2632C171.434 71.553 168.545 47.5776 139.37 54.7973C139.368 54.7973 131.859 47.8643 118.571 54.5083Z" fill="#1F1F39"/>
<path d="M221.377 241.838H176.052L164.789 198.074L212.828 190.477L221.377 241.838Z" fill="#F9D2DD"/>
<path d="M22.6691 213.384C13.4243 211.647 -1.59304 202.118 0.137371 181.898C1.86778 161.678 39.7115 102.171 39.7115 102.171C39.7115 102.171 33.6454 95.2383 36.245 86.8616C38.8446 78.4849 48.0894 76.1731 54.1532 75.8841C57.66 75.684 61.1755 76.0748 64.5527 77.04L77.8408 58.2683C77.8408 58.2683 80.7305 54.5083 84.197 56.2398C87.6635 57.9714 80.7305 69.239 80.7305 69.239L74.3754 82.2392C74.3754 82.2392 73.2196 93.5022 70.6211 99.8596C68.0226 106.217 66.5767 107.663 66.5767 107.663L52.7106 153.3L68.6017 148.967L54.1532 208.762C54.1532 208.762 31.9127 215.117 22.6691 213.384Z" fill="#FFEBF0"/>
<path d="M54.1551 208.763L68.5979 148.968L54.386 152.836L40.2891 211.94C50.0242 210.668 54.1551 208.763 54.1551 208.763Z" fill="#F9ACC0"/>
<path d="M164.789 198.074L168.771 213.615L218.022 221.791L212.828 190.477L164.789 198.074Z" fill="#F9ACC0"/>
<path d="M217.94 212.517C217.94 212.517 211.296 146.945 178.366 136.835C145.436 126.726 122.619 129.902 112.215 133.081C101.811 136.26 57.3314 150.411 57.3314 150.411L47.7988 213.672L73.5104 211.072L69.1747 241.981H183.045C183.045 241.981 180.676 223.778 177.788 212.515L217.94 212.517Z" fill="#3D5CFF"/>
<path d="M217.94 212.517C217.94 212.517 211.296 146.945 178.366 136.835C145.436 126.726 122.619 129.902 112.215 133.081C101.811 136.26 57.3314 150.411 57.3314 150.411L47.7988 213.672L73.5104 211.072L69.1747 241.981H183.045C183.045 241.981 180.676 223.778 177.788 212.515L217.94 212.517Z" fill="#3D5CFF"/>
<path d="M211.613 184.959C207.194 179.989 195.438 168.407 181.312 167.743C169.642 167.194 166.75 160.03 164.182 153.733C162.536 149.689 161.005 145.847 157.452 143.681C151.01 139.752 144.395 141.86 136.076 144.518C132.216 145.831 128.28 146.911 124.291 147.754C116.808 149.227 112.245 145.847 109.702 142.756C108.013 140.65 106.748 138.237 105.976 135.65C105.956 135.578 105.95 135.502 105.959 135.428C105.969 135.354 105.993 135.282 106.031 135.217C106.068 135.153 106.119 135.096 106.179 135.052C106.239 135.007 106.307 134.975 106.38 134.957C106.452 134.936 106.528 134.93 106.602 134.94C106.677 134.949 106.748 134.973 106.813 135.011C106.878 135.049 106.935 135.099 106.979 135.159C107.024 135.219 107.057 135.288 107.074 135.361C107.806 137.793 109.004 140.059 110.601 142.033C114.014 146.164 118.516 147.696 124.062 146.626C128.007 145.772 131.902 144.702 135.729 143.42C144.019 140.763 151.183 138.48 158.062 142.698C161.93 145.066 163.636 149.255 165.283 153.299C167.825 159.596 170.454 166.095 181.402 166.587C195.958 167.247 208.006 179.124 212.509 184.179C212.56 184.235 212.599 184.301 212.624 184.372C212.648 184.444 212.658 184.52 212.653 184.596C212.648 184.671 212.627 184.745 212.592 184.812C212.557 184.88 212.509 184.939 212.451 184.988C212.338 185.088 212.197 185.148 212.047 185.16C211.964 185.164 211.881 185.148 211.805 185.113C211.73 185.077 211.664 185.025 211.613 184.959Z" fill="#EAEAFF"/>
<path d="M125.735 236.81C125.215 223.522 118.34 221.587 110.397 219.363C106.699 218.323 102.857 217.253 99.5354 214.914C92.227 209.802 93.0939 204.4 94.1053 198.131C94.7102 194.943 94.9719 191.698 94.8857 188.454C94.3942 179.21 86.9424 176.726 76.659 173.323C74.7249 172.687 72.701 171.994 70.6213 171.243C65.1024 169.244 62.1558 164.623 62.0967 157.921C62.1063 154.702 62.6235 151.505 63.6291 148.447L64.727 148.822C63.7534 151.758 63.256 154.83 63.2537 157.923C63.3402 164.162 65.9398 168.293 71.024 170.142C73.0719 170.893 75.0969 171.557 77.0321 172.19C87.3736 175.627 95.5194 178.342 96.0678 188.367C96.1701 191.688 95.9084 195.01 95.2873 198.275C94.2759 204.63 93.5546 209.251 100.256 213.931C103.433 216.155 107.159 217.195 110.77 218.207C118.802 220.462 126.399 222.569 126.944 236.724C127 238.407 127.155 240.085 127.406 241.75L126.193 241.952C125.942 240.248 125.789 238.532 125.735 236.81Z" fill="#EAEAFF"/>
<path d="M152.368 185.451C151.011 185.248 149.624 185.017 148.092 184.758C140.005 183.313 138.907 178.056 137.751 172.51C137.215 168.932 136 165.491 134.169 162.371C130.733 157.085 124.926 158.413 116.895 160.261C111.724 161.446 105.889 162.775 99.3895 162.602C96.0941 162.588 92.872 161.628 90.1067 159.836C87.3414 158.043 85.1495 155.494 83.7919 152.491C82.2942 149.46 81.3642 146.18 81.0479 142.814L82.2037 142.728C82.5331 145.951 83.433 149.091 84.8613 152C87.9228 158.094 92.8342 161.272 99.4487 161.442C105.804 161.615 111.552 160.286 116.665 159.132C124.841 157.255 131.282 155.781 135.181 161.731C137.095 164.963 138.369 168.533 138.935 172.246C140.12 177.85 141.044 182.298 148.352 183.599C149.854 183.859 151.24 184.09 152.598 184.291C160.484 185.534 165.712 186.339 173.02 194.2L172.125 195.008C165.078 187.438 160.023 186.664 152.368 185.451Z" fill="#EAEAFF"/>
<path d="M107.883 85.9948C103.839 89.4613 106.15 96.6822 111.638 98.705C117.126 100.728 118.571 99.2829 118.571 99.2829L115.971 85.4169C114.75 84.6034 113.292 84.2188 111.828 84.3234C110.365 84.428 108.977 85.0159 107.883 85.9948Z" fill="#F9ACC0"/>
<path d="M117.704 104.771C118.637 106.892 119.988 108.803 121.675 110.39C123.363 111.978 125.352 113.21 127.526 114.012C127.838 117.489 127.643 120.992 126.948 124.412C126.384 127.196 125.514 129.91 124.352 132.502C124.352 132.502 126.084 136.256 138.218 136.835C150.351 137.414 152.084 132.502 152.084 132.502C151.276 127.925 150.89 123.284 150.928 118.637C151.331 113.693 152.006 108.775 152.949 103.905C152.949 103.905 160.748 106.505 165.66 101.595C170.571 96.6844 169.414 87.4408 163.349 86.8628C157.284 86.2849 154.102 91.4864 154.102 91.4864C154.102 91.4864 145.435 87.4385 141.97 80.7922C138.504 74.1459 138.215 69.5292 138.215 69.5292C138.215 69.5292 121.46 71.8398 115.683 85.4169C115.683 85.4169 114.527 97.5491 117.704 104.771Z" fill="#F9D2DD"/>
<path d="M124.493 92.9277C123.94 92.8643 123.434 92.5868 123.083 92.1547C122.732 91.7226 122.564 91.1702 122.616 90.6159C122.564 90.0618 122.732 89.5097 123.083 89.0779C123.434 88.646 123.94 88.3687 124.493 88.3053C125.046 88.3687 125.552 88.646 125.902 89.0779C126.253 89.5097 126.421 90.0618 126.37 90.6159C126.421 91.1702 126.254 91.7226 125.903 92.1547C125.552 92.5868 125.046 92.8643 124.493 92.9277Z" fill="#1F1F39"/>
<path d="M139.224 93.7946C138.671 93.7313 138.165 93.4538 137.814 93.0217C137.463 92.5895 137.296 92.0371 137.347 91.4829C137.296 90.9288 137.464 90.3767 137.814 89.9448C138.165 89.5129 138.671 89.2356 139.224 89.1722C139.777 89.2356 140.283 89.5129 140.634 89.9448C140.985 90.3767 141.153 90.9288 141.101 91.4829C141.153 92.0371 140.985 92.5895 140.634 93.0217C140.283 93.4538 139.777 93.7313 139.224 93.7946Z" fill="#1F1F39"/>
<path d="M136.191 99.8596C137.43 99.339 138.595 98.6594 139.658 97.8379C139.658 97.8379 140.236 97.5489 140.525 97.8379C140.814 98.1269 138.965 101.419 137.347 101.882C136.566 102.142 135.722 102.141 134.941 101.881C134.16 101.621 133.484 101.116 133.014 100.44C132.147 99.2839 133.303 99.5729 133.303 99.5729C134.232 99.8855 135.219 99.9835 136.191 99.8596Z" fill="#F95368"/>
<path d="M130.443 90.7036C130.09 91.2976 129.8 91.9267 129.577 92.5808C129.484 92.8798 129.446 93.1931 129.464 93.5057C129.464 93.5922 129.492 93.6502 129.492 93.7082L129.579 93.9357C129.643 94.0859 129.719 94.2308 129.806 94.3692C130.01 94.6355 130.272 94.8519 130.573 95.0021C130.873 95.1523 131.203 95.2323 131.539 95.2361C131.182 95.3469 130.802 95.3567 130.441 95.2645C130.055 95.1775 129.71 94.9641 129.459 94.6582C129.329 94.5061 129.215 94.3415 129.118 94.1667L129.004 93.9062C128.97 93.8231 128.941 93.7071 128.913 93.5922C128.855 93.1966 128.884 92.793 128.999 92.4101C129.241 91.7048 129.592 91.0418 130.039 90.4453C130.489 89.8691 131.003 89.3451 131.569 88.8833L130.443 90.7036Z" fill="#1F1F39"/>
<path d="M189.573 212.517C188.216 208.213 183.19 192.874 177.496 182.764C173.335 175.435 168.292 168.644 162.479 162.544C162.479 162.544 169.646 183.283 171.722 190.274C173.77 197.121 179.031 217.947 179.031 217.947C178.627 216.041 178.222 214.193 177.788 212.517H189.573Z" fill="#224BF4"/>
<path d="M138.906 83.6261C139.472 83.4158 140.066 83.2893 140.669 83.2507C141.284 83.2103 141.902 83.2875 142.489 83.4782C143.092 83.6476 143.614 84.0264 143.962 84.5465C143.432 84.3453 142.878 84.2108 142.315 84.146C141.777 84.0935 141.236 84.084 140.697 84.1176C140.147 84.1467 139.598 84.2044 139.053 84.2905L137.347 84.551C137.81 84.1555 138.337 83.8426 138.906 83.6261Z" fill="#1F1F39"/>
<path d="M121.547 81.8058C123.06 81.6209 124.591 81.9658 125.879 82.7819C126.201 82.992 126.492 83.2446 126.746 83.5328C127.005 83.8146 127.176 84.1663 127.237 84.5442C127.028 84.2619 126.762 84.026 126.457 83.8514C126.158 83.6802 125.85 83.526 125.533 83.3895C124.902 83.1386 124.256 82.9262 123.599 82.7535C122.934 82.6005 122.257 82.5057 121.575 82.4702C120.882 82.4702 120.16 82.4702 119.438 82.5271C120.083 82.1423 120.801 81.8966 121.547 81.8058Z" fill="#1F1F39"/>
<path d="M250 241.692V242.647H13.1357V241.692H250Z" fill="#1F1F39"/>
<path d="M60.0476 103.847C57.3827 101.35 55.6244 98.0365 55.0498 94.4296C54.6164 91.5991 54.7904 87.5842 56.5811 85.4749C56.7762 85.2174 57.0239 85.0043 57.3078 84.8499C57.5916 84.6955 57.9051 84.6034 58.2274 84.5796C59.7291 84.5796 60.2752 85.7059 61.2024 87.5842C61.4914 88.1906 61.8383 88.855 62.2422 89.632C63.9521 92.7254 68.7998 97.6071 68.8282 97.6629C68.8548 97.6894 68.8758 97.7209 68.8901 97.7555C68.9045 97.7902 68.9119 97.8273 68.9119 97.8648C68.9119 97.9023 68.9045 97.9395 68.8901 97.9741C68.8758 98.0088 68.8548 98.0402 68.8282 98.0668C68.8017 98.0933 68.7702 98.1143 68.7356 98.1287C68.7009 98.143 68.6638 98.1504 68.6263 98.1504C68.5888 98.1504 68.5517 98.143 68.517 98.1287C68.4824 98.1143 68.4509 98.0933 68.4244 98.0668C68.2219 97.8677 63.4561 93.1008 61.7223 89.9267C61.29 89.144 60.9714 88.4477 60.6529 87.8436C59.7291 85.9368 59.2968 85.1575 58.1989 85.1575C57.7193 85.2199 57.2835 85.4689 56.9861 85.8504C55.9452 87.0643 54.9349 90.0404 55.5697 94.3431C56.137 97.8147 57.8323 101.003 60.3935 103.414C60.4225 103.438 60.4463 103.468 60.4635 103.502C60.4807 103.535 60.491 103.572 60.4936 103.61C60.4963 103.647 60.4913 103.685 60.479 103.721C60.4667 103.757 60.4473 103.79 60.4219 103.818C60.3983 103.848 60.3673 103.872 60.3318 103.887C60.2964 103.902 60.2577 103.908 60.2194 103.904C60.1578 103.903 60.098 103.883 60.0476 103.847Z" fill="#1F1F39"/>
<path d="M47.2794 93.3601C42.8027 91.8584 42.7446 89.7207 42.7446 89.6342C42.7423 89.5956 42.7482 89.557 42.7619 89.5209C42.7756 89.4848 42.7968 89.452 42.8241 89.4247C42.8514 89.3974 42.8842 89.3762 42.9203 89.3625C42.9564 89.3488 42.9951 89.3429 43.0336 89.3452C43.1102 89.3452 43.1837 89.3757 43.2379 89.4299C43.2921 89.4841 43.3226 89.5576 43.3226 89.6342C43.3226 89.6626 43.4363 91.4829 47.4535 92.8402C48.6889 93.2367 49.9944 93.3671 51.2839 93.2228C52.5733 93.0785 53.8176 92.6627 54.9349 92.0028C54.9671 91.982 55.0032 91.9677 55.041 91.9608C55.0788 91.9539 55.1176 91.9545 55.1551 91.9626C55.1927 91.9707 55.2283 91.9861 55.2599 92.0079C55.2915 92.0297 55.3185 92.0576 55.3393 92.0899C55.3601 92.1221 55.3744 92.1582 55.3813 92.196C55.3882 92.2338 55.3876 92.2726 55.3796 92.3101C55.3715 92.3477 55.3561 92.3833 55.3342 92.4149C55.3124 92.4465 55.2845 92.4735 55.2523 92.4943C53.7293 93.3394 52.0251 93.805 50.284 93.8516C49.2629 93.8465 48.2489 93.6806 47.2794 93.3601Z" fill="#1F1F39"/>
<path d="M142.547 114.592C137.636 115.849 132.485 115.829 127.584 114.534C127.838 117.841 127.624 121.167 126.949 124.414C126.863 124.818 126.776 125.194 126.688 125.54C130.494 125.596 134.254 124.713 137.636 122.969C144.858 119.214 146.013 113.726 146.013 113.726C144.842 113.949 143.685 114.239 142.547 114.592Z" fill="#F9ACC0"/>
<path d="M37.8285 156.102C37.814 156.027 37.8298 155.949 37.8723 155.885C37.9149 155.821 37.9809 155.776 38.056 155.761L57.0723 151.879C57.1477 151.864 57.2257 151.88 57.2896 151.923C57.3534 151.965 57.398 152.031 57.4136 152.106C57.4281 152.182 57.4123 152.26 57.3697 152.324C57.3272 152.388 57.2612 152.432 57.1861 152.448L38.18 156.333H38.1231C38.0542 156.337 37.9861 156.316 37.9317 156.274C37.8774 156.231 37.8406 156.17 37.8285 156.102Z" fill="#1F1F39"/>
<path d="M133.733 115.892C132.208 115.821 130.696 115.578 129.226 115.169C128.621 115.008 128.024 114.815 127.439 114.593C127.367 114.564 127.31 114.509 127.278 114.439C127.245 114.37 127.241 114.29 127.266 114.217C127.294 114.146 127.349 114.088 127.419 114.055C127.489 114.023 127.568 114.018 127.641 114.043C128.219 114.257 128.807 114.44 129.404 114.593C130.835 114.994 132.308 115.227 133.794 115.285C137.469 115.464 141.147 114.985 144.654 113.87C144.727 113.845 144.807 113.85 144.876 113.882C144.946 113.914 145.001 113.972 145.03 114.043C145.054 114.116 145.05 114.195 145.018 114.265C144.986 114.335 144.928 114.39 144.857 114.419C141.723 115.437 138.446 115.944 135.151 115.92C134.689 115.921 134.199 115.921 133.733 115.892Z" fill="#1F1F39"/>
<path d="M115.249 97.6936C115.038 95.9996 114.456 94.373 113.544 92.9301C111.898 89.9232 110.511 89.3168 110.511 89.2895C110.475 89.2768 110.442 89.2563 110.414 89.2294C110.387 89.2026 110.365 89.1701 110.351 89.1341C110.338 89.0982 110.332 89.0597 110.335 89.0213C110.337 88.9829 110.348 88.9455 110.367 88.9118C110.398 88.8423 110.453 88.7864 110.522 88.7545C110.591 88.7227 110.669 88.7171 110.742 88.7389C110.8 88.7673 112.303 89.4033 114.064 92.6093C115.04 94.133 115.644 95.8649 115.826 97.6651C115.832 97.7056 115.828 97.7467 115.816 97.7856C115.803 97.8245 115.783 97.8603 115.755 97.8905C115.728 97.9206 115.694 97.9445 115.656 97.9604C115.619 97.9763 115.578 97.9838 115.537 97.9825C115.499 97.9849 115.46 97.979 115.424 97.9653C115.388 97.9516 115.355 97.9304 115.328 97.9031C115.301 97.8757 115.279 97.8429 115.266 97.8068C115.252 97.7707 115.246 97.7321 115.249 97.6936Z" fill="#1F1F39"/>
<path d="M177.274 212.258C176.206 208.617 174.645 202.986 173.143 196.717C170.279 184.728 162.248 162.89 162.161 162.66C162.137 162.587 162.141 162.507 162.173 162.437C162.205 162.367 162.263 162.313 162.334 162.284C162.407 162.259 162.488 162.262 162.558 162.295C162.628 162.327 162.684 162.385 162.712 162.457C162.799 162.685 170.829 184.555 173.688 196.571C175.19 202.84 176.75 208.473 177.79 212.084C177.8 212.119 177.802 212.157 177.798 212.194C177.793 212.23 177.78 212.266 177.762 212.298C177.743 212.33 177.717 212.357 177.687 212.379C177.657 212.401 177.623 212.417 177.587 212.425C177.616 212.425 177.587 212.453 177.559 212.453C177.498 212.448 177.44 212.428 177.391 212.393C177.341 212.359 177.301 212.312 177.274 212.258Z" fill="#1F1F39"/>
<path d="M93.7281 27.6445C93.7091 27.8367 93.7091 28.0303 93.7281 28.2225V27.6445Z" fill="#EAEAFF"/>
<path d="M86.199 41.1658C86.0887 41.1656 85.9786 41.1553 85.8702 41.1351H85.4128C85.215 41.1372 85.0188 41.0998 84.8356 41.0251C84.6525 40.9504 84.4861 40.8398 84.3462 40.7C84.2063 40.5601 84.0958 40.3937 84.0211 40.2105C83.9464 40.0274 83.909 39.8311 83.9111 39.6333V29.2042H74.9815C74.1997 29.2056 73.4253 29.0526 72.7027 28.7541C71.9802 28.4555 71.3236 28.0173 70.7707 27.4646C70.2179 26.9118 69.7795 26.2553 69.4809 25.5328C69.1822 24.8103 69.0291 24.036 69.0303 23.2542V5.9512C69.0291 5.16934 69.1822 4.39494 69.4808 3.67236C69.7795 2.94979 70.2178 2.29326 70.7707 1.7404C71.3235 1.18754 71.9801 0.749225 72.7026 0.450574C73.4252 0.151923 74.1996 -0.0011915 74.9815 6.9816e-06H113.627C115.208 0.0014834 116.724 0.628055 117.844 1.74299C118.964 2.85792 119.598 4.3707 119.607 5.9512V23.2826C119.608 24.0644 119.455 24.8386 119.156 25.5611C118.857 26.2835 118.419 26.9399 117.866 27.4927C117.313 28.0454 116.657 28.4836 115.934 28.7822C115.212 29.0808 114.437 29.2339 113.656 29.2327H99.4768L87.2331 40.7585C87.0968 40.8921 86.935 40.997 86.7574 41.067C86.5797 41.1369 86.3898 41.1705 86.199 41.1658ZM84.191 5.93641C83.9033 5.93394 83.6157 5.94837 83.3298 5.97965C83.0631 6.71922 82.9429 7.50364 82.9759 8.28913C83.0547 10.5213 83.6714 12.7015 84.7735 14.6442C86.7643 18.0957 89.7988 20.8267 93.4403 22.4441C99.3926 21.5784 103.445 19.5738 105.486 16.485C106.697 14.6712 107.143 12.4529 106.728 10.3119C106.101 10.1499 105.455 10.0734 104.807 10.0844C102.69 10.1037 100.634 10.79 98.9296 12.0457C95.1969 14.7011 94.4312 16.9867 94.3061 18.1118C94.1944 15.0049 93.1917 11.9957 91.4175 9.44274C90.5833 8.32073 89.4909 7.41627 88.233 6.80593C86.9751 6.19558 85.5886 5.89733 84.191 5.93641Z" fill="white"/>
<path d="M99.2166 17.2449C102.683 14.3563 105.283 11.7567 105.283 11.7567C103.636 12.5372 102.085 13.5066 100.661 14.6453C98.1033 16.8969 95.6911 19.3091 93.4395 21.8673C93.4395 21.8673 95.7501 20.1334 99.2166 17.2449Z" fill="white"/>
<path d="M88.5292 14.6455C89.8325 17.2634 91.4843 19.6927 93.4394 21.8675C93.4394 21.8675 91.9946 18.6899 90.2619 15.2234C88.9523 12.7666 87.4045 10.4444 85.6406 8.29041C85.6406 8.29041 85.9296 9.73526 88.5292 14.6455Z" fill="white"/>
<path d="M214.665 88.2213C214.476 88.2246 214.288 88.1904 214.112 88.1207C213.937 88.051 213.777 87.9471 213.641 87.8151L201.392 76.2893H187.206C186.424 76.2905 185.65 76.1374 184.927 75.8387C184.205 75.5401 183.548 75.1018 182.995 74.5489C182.442 73.996 182.004 73.3395 181.705 72.6169C181.407 71.8944 181.254 71.12 181.255 70.3381V53.0363C181.254 52.2544 181.407 51.48 181.705 50.7574C182.004 50.0349 182.442 49.3783 182.995 48.8255C183.548 48.2726 184.205 47.8343 184.927 47.5357C185.65 47.237 186.424 47.0839 187.206 47.0851H225.852C227.427 47.085 228.938 47.7062 230.058 48.8139C231.177 49.9216 231.815 51.4262 231.832 53.001V70.3097C231.833 71.0915 231.679 71.8658 231.381 72.5883C231.082 73.3108 230.644 73.9673 230.091 74.5201C229.538 75.073 228.882 75.5113 228.159 75.81C227.436 76.1087 226.662 76.2619 225.88 76.2609H216.959V86.6877C216.961 86.8855 216.923 87.0817 216.849 87.2649C216.774 87.448 216.663 87.6144 216.524 87.7543C216.384 87.8942 216.217 88.0047 216.034 88.0794C215.851 88.1542 215.655 88.1915 215.457 88.1894H214.994C214.886 88.2102 214.775 88.2209 214.665 88.2213ZM213.705 53.8702C213.583 53.8705 213.462 53.8912 213.348 53.9316L207.916 55.7804C207.715 55.8546 207.541 55.9882 207.417 56.1635C207.294 56.3388 207.226 56.5476 207.224 56.7622V68.8079C207.219 68.8675 207.229 68.9273 207.253 68.982C207.288 69.0814 207.353 69.1676 207.438 69.2287C207.524 69.2898 207.627 69.3229 207.732 69.3233C207.785 69.3234 207.838 69.315 207.888 69.2983L214.041 67.189C214.26 67.113 214.449 66.9678 214.58 66.7752C214.71 66.5826 214.774 66.353 214.763 66.1207V54.943C214.758 54.8293 214.739 54.7167 214.707 54.6074V54.596C214.64 54.3837 214.506 54.1987 214.326 54.068C214.145 53.9374 213.928 53.868 213.705 53.8702ZM199.37 53.8702C199.084 53.877 198.811 53.9958 198.612 54.201C198.412 54.4062 198.3 54.6816 198.301 54.9681V66.1469C198.3 66.3699 198.369 66.5875 198.499 66.7689C198.628 66.9502 198.812 67.0861 199.023 67.1572L205.172 69.2698C205.217 69.2928 205.267 69.3027 205.317 69.2983C205.384 69.3016 205.45 69.2915 205.513 69.2683C205.576 69.2452 205.633 69.2096 205.682 69.1636C205.73 69.1177 205.769 69.0624 205.796 69.0011C205.822 68.9397 205.836 68.8736 205.837 68.8068V56.7622C205.834 56.5479 205.767 56.3393 205.644 56.164C205.521 55.9887 205.347 55.8549 205.146 55.7804L199.713 53.9305C199.6 53.8976 199.484 53.8785 199.367 53.8736L199.37 53.8702Z" fill="white"/>
<path d="M146.735 100.726C143.625 100.726 141.103 99.1747 141.103 97.26C141.103 95.3453 143.625 93.7935 146.735 93.7935C149.846 93.7935 152.366 95.3453 152.366 97.26C152.366 99.1747 149.847 100.726 146.735 100.726Z" fill="#F9ACC0"/>
<path d="M115.624 94.8051C115.732 96.57 115.953 98.3261 116.288 100.062C117.329 100.507 118.45 100.733 119.582 100.727C122.702 100.727 125.215 99.1669 125.215 97.2602C125.215 95.3534 122.702 93.7937 119.582 93.7937C118.195 93.7585 116.825 94.1086 115.624 94.8051V94.8051Z" fill="#F9ACC0"/>
<path d="M152.917 104.135C152.933 104.06 152.943 103.984 152.945 103.907C154.213 104.287 155.523 104.51 156.845 104.572C156.817 104.369 156.759 104.168 156.701 103.907C155.546 100.438 159.301 93.7935 159.301 93.7935C159.301 93.7935 155.257 94.6604 153.523 100.437C153.15 101.636 152.946 102.88 152.917 104.135V104.135Z" fill="#F9ACC0"/>
<path d="M153.004 101.421C152.967 101.408 152.934 101.388 152.905 101.362C152.877 101.336 152.854 101.304 152.838 101.269C152.822 101.234 152.813 101.197 152.812 101.158C152.81 101.12 152.817 101.081 152.831 101.045C153.492 99.3649 154.376 97.7811 155.459 96.3364C156.592 94.6247 158.117 93.2084 159.908 92.2054C159.974 92.177 160.048 92.1728 160.117 92.1936C160.185 92.2144 160.244 92.2589 160.284 92.3192C160.312 92.3851 160.316 92.459 160.295 92.5278C160.275 92.5965 160.23 92.6556 160.17 92.6946C158.473 93.6666 157.028 95.0225 155.95 96.6538C154.917 98.0583 154.055 99.5805 153.381 101.189C153.367 101.257 153.332 101.319 153.28 101.366C153.228 101.413 153.162 101.442 153.092 101.449C153.076 101.451 153.06 101.45 153.045 101.445C153.029 101.44 153.015 101.432 153.004 101.421Z" fill="#1F1F39"/>
<path d="M81.0477 176.12C81.0477 176.12 77.5527 189.437 69.4638 200.125C63.8596 207.549 53.9516 211.766 48.377 213.643L73.3058 211.102L81.0477 176.12Z" fill="#224BF4"/>
<path d="M73.4803 211.363C73.4081 211.345 73.3436 211.304 73.2966 211.247C73.2496 211.189 73.2226 211.118 73.2197 211.044C73.2197 210.958 74.404 201.684 76.3973 192.817C78.3905 183.95 83.0117 168.119 83.0413 167.946C83.0653 167.876 83.1133 167.817 83.1768 167.779C83.2403 167.741 83.3152 167.726 83.3883 167.738C83.4562 167.763 83.5134 167.811 83.5503 167.873C83.5872 167.935 83.6015 168.008 83.5908 168.08C83.5316 168.235 78.9388 184.065 76.9456 192.904C74.9524 201.742 73.7977 210.987 73.7681 211.074C73.7712 211.11 73.7668 211.147 73.7552 211.181C73.7436 211.216 73.725 211.248 73.7006 211.275C73.6761 211.302 73.6464 211.324 73.6132 211.339C73.58 211.354 73.544 211.362 73.5076 211.363H73.4803Z" fill="#1F1F39"/>
</svg>
