<svg width="28" height="29" viewBox="0 0 28 29" fill="none" xmlns="http://www.w3.org/2000/svg">
<path d="M6.29999 22.8998C6.83802 22.2972 9.35788 19.5243 10.0963 19.5243H17.9041C18.9742 19.5243 21.1586 21.8229 21.7 22.6331M25.2 14.4998C25.2 20.6854 20.1856 25.6998 14 25.6998C7.8144 25.6998 2.79999 20.6854 2.79999 14.4998C2.79999 8.31422 7.8144 3.2998 14 3.2998C20.1856 3.2998 25.2 8.31422 25.2 14.4998ZM18.012 10.6824C18.012 8.54566 16.2081 6.7998 14.0003 6.7998C11.7926 6.7998 9.98868 8.54566 9.98868 10.6824C9.98868 12.8192 11.7926 14.565 14.0003 14.565C16.2081 14.565 18.012 12.8192 18.012 10.6824Z" stroke="white" stroke-width="2"/>
</svg>
