<svg width="24" height="25" viewBox="0 0 24 25" fill="none" xmlns="http://www.w3.org/2000/svg">
<path d="M1 6.38889V3.94444C1 3.29614 1.25754 2.67438 1.71596 2.21596C2.17438 1.75754 2.79614 1.5 3.44444 1.5H5.88889M18.1111 1.5H20.5556C21.2039 1.5 21.8256 1.75754 22.284 2.21596C22.7425 2.67438 23 3.29614 23 3.94444V6.38889M23 18.6111V21.0556C23 21.7039 22.7425 22.3256 22.284 22.784C21.8256 23.2425 21.2039 23.5 20.5556 23.5H18.1111M5.88889 23.5H3.44444C2.79614 23.5 2.17438 23.2425 1.71596 22.784C1.25754 22.3256 1 21.7039 1 21.0556V18.6111M5.88889 12.5H18.1111" stroke="white" stroke-width="2" stroke-linecap="round" stroke-linejoin="round"/>
</svg>
